# xmcd
# 
# Track frame offsets:
#     150
#     14742
#     43912
# 
# Disc length: 865
# 
# Revision: 2
# Processed by: cddbd v1.5.2PL0 Copyright (c) Steve Scherf et al.
# Submitted via: fre:ac v1.0.31
# 
DISCID=24035f03
DTITLE=SHERBETS - High School
DYEAR=1999
DGENRE=Rock
TTITLE0=High School
TTITLE1=ステファニー
TTITLE2=ジェイムズさん
EXTD=YEAR: 1999
EXTT0=
EXTT1=
EXTT2=
PLAYORDER=
